<svg width="38" height="38" viewBox="0 0 38 38" fill="none" xmlns="http://www.w3.org/2000/svg">
<path d="M12.7101 30.5975C12.7101 30.7547 12.5339 30.8804 12.3117 30.8804C12.0589 30.904 11.8827 30.7783 11.8827 30.5975C11.8827 30.4404 12.0589 30.3147 12.281 30.3147C12.5109 30.2911 12.7101 30.4168 12.7101 30.5975ZM10.3274 30.244C10.2738 30.4011 10.427 30.5818 10.6569 30.629C10.856 30.7075 11.0859 30.629 11.1319 30.4718C11.1778 30.3147 11.0323 30.1339 10.8024 30.0632C10.6032 30.0082 10.381 30.0868 10.3274 30.244ZM13.7137 30.1104C13.4915 30.1654 13.3383 30.3147 13.3613 30.4954C13.3843 30.6525 13.5835 30.7547 13.8133 30.6997C14.0355 30.6447 14.1887 30.4954 14.1657 30.3382C14.1427 30.1889 13.9359 30.0868 13.7137 30.1104ZM18.7548 0C8.12863 0 0 8.27407 0 19.1726C0 27.8867 5.34758 35.3435 12.9859 37.968C13.9665 38.1487 14.3113 37.528 14.3113 37.0172C14.3113 36.53 14.2883 33.8427 14.2883 32.1926C14.2883 32.1926 8.9254 33.3713 7.79919 29.8511C7.79919 29.8511 6.92581 27.5645 5.66935 26.9752C5.66935 26.9752 3.91492 25.7415 5.79194 25.7651C5.79194 25.7651 7.6996 25.9223 8.74919 27.7924C10.427 30.8254 13.2387 29.9532 14.3343 29.4346C14.5105 28.1774 15.0085 27.3052 15.5601 26.7866C11.2774 26.2994 6.95645 25.663 6.95645 18.1039C6.95645 15.9431 7.53871 14.8587 8.76452 13.4758C8.56532 12.9651 7.91411 10.8592 8.96371 8.14049C10.5649 7.62974 14.25 10.262 14.25 10.262C15.7823 9.82202 17.4294 9.59415 19.0613 9.59415C20.6931 9.59415 22.3403 9.82202 23.8726 10.262C23.8726 10.262 27.5577 7.62188 29.1589 8.14049C30.2085 10.8671 29.5573 12.9651 29.3581 13.4758C30.5839 14.8666 31.3347 15.951 31.3347 18.1039C31.3347 25.6865 26.8222 26.2916 22.5395 26.7866C23.2444 27.4074 23.8419 28.586 23.8419 30.4325C23.8419 33.0805 23.819 36.3572 23.819 37.0015C23.819 37.5122 24.1714 38.133 25.1444 37.9523C32.8056 35.3435 38 27.8867 38 19.1726C38 8.27407 29.381 0 18.7548 0V0ZM7.44677 27.1009C7.34718 27.1795 7.37016 27.3602 7.5004 27.5095C7.62298 27.6352 7.79919 27.6902 7.89879 27.5881C7.99839 27.5095 7.9754 27.3288 7.84516 27.1795C7.72258 27.0538 7.54637 26.9988 7.44677 27.1009ZM6.61936 26.4644C6.56573 26.5666 6.64234 26.6923 6.79556 26.7709C6.91815 26.8495 7.07137 26.8259 7.125 26.7159C7.17863 26.6137 7.10202 26.488 6.94879 26.4094C6.79556 26.3623 6.67298 26.3859 6.61936 26.4644ZM9.10161 29.2617C8.97903 29.3639 9.025 29.5996 9.20121 29.7489C9.37742 29.9296 9.5996 29.9532 9.69919 29.8275C9.79879 29.7253 9.75282 29.4896 9.5996 29.3403C9.43105 29.1596 9.20121 29.136 9.10161 29.2617ZM8.22823 28.1067C8.10565 28.1853 8.10565 28.3896 8.22823 28.5703C8.35081 28.751 8.55766 28.8296 8.65726 28.751C8.77984 28.6489 8.77984 28.4446 8.65726 28.2638C8.55 28.0831 8.35081 28.0045 8.22823 28.1067Z" fill="white"/>
</svg>
