<svg width="38" height="32" viewBox="0 0 38 32" fill="none" xmlns="http://www.w3.org/2000/svg">
<path d="M34.094 7.97497C34.1181 8.32495 34.1181 8.67501 34.1181 9.025C34.1181 19.6999 26.2819 32 11.9594 32C7.54696 32 3.44799 30.6749 0 28.375C0.626928 28.45 1.22966 28.475 1.88071 28.475C5.52153 28.475 8.87311 27.2 11.5495 25.025C8.12565 24.95 5.25634 22.625 4.26774 19.425C4.75002 19.4999 5.23222 19.55 5.73862 19.55C6.43783 19.55 7.13713 19.4499 7.7881 19.275C4.21957 18.5249 1.54309 15.275 1.54309 11.35V11.25C2.57985 11.85 3.78554 12.225 5.06337 12.275C2.96564 10.8249 1.59133 8.34996 1.59133 5.54994C1.59133 4.04997 1.97705 2.67497 2.65222 1.47496C6.486 6.37496 12.2487 9.5749 18.7106 9.92497C18.5901 9.32496 18.5177 8.70002 18.5177 8.07501C18.5177 3.62496 21.9898 0 26.3058 0C28.5482 0 30.5736 0.974998 31.9962 2.55C33.7563 2.20002 35.4441 1.52498 36.9391 0.600004C36.3604 2.47505 35.1307 4.05005 33.5152 5.04998C35.0825 4.87506 36.6016 4.42496 38 3.80003C36.9393 5.39996 35.613 6.8249 34.094 7.97497V7.97497Z" fill="white"/>
</svg>
