<svg width="38" height="24" viewBox="0 0 38 24" fill="none" xmlns="http://www.w3.org/2000/svg">
<path d="M37.134 1.6275C37.395 0.69 37.134 0 35.8783 0H31.7233C30.6651 0 30.1784 0.5925 29.9174 1.2525C29.9174 1.2525 27.8011 6.735 24.8101 10.29C23.8436 11.3175 23.3992 11.6475 22.8701 11.6475C22.6091 11.6475 22.207 11.3175 22.207 10.38V1.6275C22.207 0.5025 21.9107 0 21.036 0H14.5037C13.8406 0 13.4455 0.525 13.4455 1.0125C13.4455 2.0775 14.9411 2.325 15.0963 5.325V11.835C15.0963 13.26 14.8564 13.5225 14.3273 13.5225C12.9165 13.5225 9.48806 8.0175 7.45642 1.7175C7.04727 0.495 6.64517 0 5.57997 0H1.42497C0.239847 0 0 0.5925 0 1.2525C0 2.4225 1.41086 8.235 6.56757 15.915C10.003 21.1575 14.8423 24 19.2442 24C21.8896 24 22.2141 23.37 22.2141 22.2825C22.2141 17.2725 21.9742 16.8 23.3004 16.8C23.9142 16.8 24.9723 17.13 27.4413 19.6575C30.263 22.6575 30.7286 24 32.3088 24H36.4638C37.6489 24 38.2485 23.37 37.9029 22.125C37.1128 19.5075 31.7727 14.1225 31.5328 13.7625C30.9191 12.9225 31.0955 12.5475 31.5328 11.7975C31.5399 11.79 36.6119 4.2 37.134 1.6275V1.6275Z" fill="white"/>
</svg>
